<?xml version="1.0" encoding="UTF-8"?>
<svg viewBox="0 0 60 20" version="1.1" xmlns="http://www.w3.org/2000/svg" xmlns:xlink="http://www.w3.org/1999/xlink">
    <!-- Generator: Sketch 47.1 (45422) - http://www.bohemiancoding.com/sketch -->
    <title>Logo_Belka</title>
    <desc>Created with Sketch.</desc>
    <defs></defs>
    <g id="Page-1" stroke="none" stroke-width="1" fill="none" fill-rule="evenodd">
        <g id="Logo_Belka" fill-rule="nonzero" fill="#282828">
            <path d="M8.45207547,11.2290566 C8.34075472,11.0233962 8.18830189,10.8018868 8.04226415,10.8690566 C7.82867925,10.9667925 7.53698113,11.5992453 7.67584906,11.6803774 C7.81433962,11.7633962 8.56264151,11.4343396 8.45207547,11.2290566" id="Shape"></path>
            <path d="M7.92037736,7.16150943 C6.25352295,7.15882475 4.66044272,7.84862193 3.52188679,9.06603774 L3.52188679,0.7 L0,5.18943396 L0,19.0245283 L3.52188679,19.0245283 L3.52188679,13.3584906 C3.78415094,13.6381132 4.7445283,14.1301887 5.54830189,13.3520755 C6.18603774,12.734717 6.10679245,11.769434 6.10679245,11.769434 C6.10679245,11.769434 5.80188679,13.3520755 4.74075472,13.3422642 C3.06339623,13.3271698 3.42339623,12.0109434 4.13396226,10.9211321 C5.05584906,9.50566038 5.97471698,9.78754717 6.98,9.76943396 C8.16867925,9.74830189 8.99320755,10.2486792 9.11509434,10.3215094 C9.23584906,10.3928302 10.830566,10.3671698 11.68,10.3781132 C12.3883019,10.3879245 12.2207547,10.7045283 12.0750943,12 C11.9298113,13.2954717 11.1230189,13.4698113 9.37132075,14.14 C8.10339623,14.6249057 7.82377358,16.8 5.47169811,18.5075472 C6.24269605,18.849551 7.07692988,19.0258085 7.92037736,19.0249057 C11.2335849,19.0249057 13.9203774,16.3686792 13.9203774,13.0928302 C13.9203774,9.81735849 11.2335849,7.16150943 7.92037736,7.16150943 Z M17.4920755,18.9113208 C17.4920755,19.0584906 17.6098113,19.1909434 17.7716981,19.1909434 L21.4215094,19.1909434 C23.1728302,19.1909434 24.6298113,17.9988679 24.6298113,16.350566 C24.6298113,14.9966038 23.4377358,14.2754717 22.6577358,13.9516981 C23.349434,13.5837736 24.3649057,12.7596226 24.3649057,11.6264151 C24.3649057,10.0811321 22.9373585,8.8890566 21.2007547,8.8890566 L17.7716981,8.8890566 C17.6975069,8.88895628 17.6263254,8.91838422 17.5738643,8.9708454 C17.5214031,9.02330658 17.4919751,9.094488 17.4920755,9.16867925 L17.4920755,18.9113208 Z M19.7879245,13.0686792 L19.7879245,11.0083019 L20.9358491,11.0083019 C21.4950943,11.0083019 21.9660377,11.4203774 21.9660377,12.0090566 C21.9660377,12.5977358 21.4950943,13.0686792 20.9358491,13.0686792 L19.7879245,13.0686792 Z M19.7879245,17.0864151 L19.7879245,14.9818868 L20.98,14.9818868 C21.5539623,14.9818868 22.1867925,15.4233962 22.1867925,16.0120755 C22.1867925,16.6154717 21.7011321,17.0864151 21.1271698,17.0864151 L19.7879245,17.0864151 Z M25.7441509,18.9113208 C25.7441509,19.0584906 25.8618868,19.1909434 26.0237736,19.1909434 L32.1166038,19.1909434 C32.190795,19.1910437 32.2619764,19.1616158 32.3144376,19.1091546 C32.3668988,19.0566934 32.3963267,18.985512 32.3962264,18.9113208 L32.3962264,17.3071698 C32.3963267,17.2329786 32.3668988,17.1617971 32.3144376,17.109336 C32.2619764,17.0568748 32.190795,17.0274468 32.1166038,17.0275472 L28.04,17.0275472 L28.04,15.0407547 L31.3954717,15.0407547 C31.4696629,15.040855 31.5408444,15.0114271 31.5933055,14.9589659 C31.6457667,14.9065047 31.6751947,14.8353233 31.6750943,14.7611321 L31.6750943,13.1566038 C31.6700142,13.0043263 31.5477491,12.8820612 31.3954717,12.8769811 L28.04,12.8769811 L28.04,11.0520755 L32.1166038,11.0520755 C32.190795,11.0521758 32.2619764,11.0227479 32.3144376,10.9702867 C32.3668988,10.9178255 32.3963267,10.8466441 32.3962264,10.7724528 L32.3962264,9.16830189 C32.3963267,9.09411064 32.3668988,9.02292922 32.3144376,8.97046804 C32.2619764,8.91800686 32.190795,8.88857892 32.1166038,8.88867925 L26.0237736,8.88867925 C25.9495823,8.88857892 25.8784009,8.91800686 25.8259397,8.97046804 C25.7734786,9.02292922 25.7440506,9.09411064 25.7441509,9.16830189 L25.7441509,18.9109434 L25.7441509,18.9113208 Z M33.6135849,18.9113208 C33.6135849,19.0584906 33.7313208,19.1909434 33.8932075,19.1909434 L39.4267925,19.1909434 C39.5009837,19.1910437 39.5721651,19.1616158 39.6246263,19.1091546 C39.6770875,19.0566934 39.7065154,18.985512 39.7064151,18.9113208 L39.7064151,17.3071698 C39.7065154,17.2329786 39.6770875,17.1617971 39.6246263,17.109336 C39.5721651,17.0568748 39.5009837,17.0274468 39.4267925,17.0275472 L35.9241509,17.0275472 L35.9241509,9.16830189 C35.9190708,9.01602444 35.7968057,8.89375935 35.6445283,8.88867925 L33.8932075,8.88867925 C33.8190163,8.88857892 33.7478349,8.91800686 33.6953737,8.97046804 C33.6429125,9.02292922 33.6134846,9.09411064 33.6135849,9.16830189 L33.6135849,18.9109434 L33.6135849,18.9113208 Z M40.7566038,18.8377358 C40.7566038,19.0290566 40.9037736,19.1909434 41.1098113,19.1909434 L42.8316981,19.1909434 C43.0256655,19.188304 43.1822663,19.0317032 43.1849057,18.8377358 L43.1849057,14.4516981 L46.5845283,19.0728302 C46.6139623,19.1169811 46.7464151,19.1758491 46.849434,19.1758491 L48.8803774,19.1758491 C49.16,19.1758491 49.3218868,18.8520755 49.16,18.6313208 L45.4071698,13.745283 L48.8509434,9.43320755 C49.0128302,9.21245283 48.8656604,8.88867925 48.5860377,8.88867925 L46.7316981,8.88867925 C46.6433962,8.88867925 46.5109434,8.96226415 46.4520755,9.03584906 L43.1849057,13.1124528 L43.1849057,9.24188679 C43.1822663,9.04791943 43.0256655,8.89131862 42.8316981,8.88867925 L41.1098113,8.88867925 C41.0157633,8.8874497 40.9252074,8.92426757 40.8586998,8.99077524 C40.7921921,9.0572829 40.7553742,9.14783879 40.7566038,9.24188679 L40.7566038,18.8373585 L40.7566038,18.8377358 Z M50.3415094,19.1909434 L51.9603774,19.1909434 C52.254717,19.1909434 52.4166038,19.0143396 52.4901887,18.8377358 L53.02,17.6603774 L57.0230189,17.6603774 L57.5528302,18.8230189 C57.685283,19.1026415 57.8030189,19.1909434 58.0679245,19.1909434 L59.7015094,19.1909434 C59.9222642,19.1909434 60.04,18.9996226 59.9516981,18.8083019 L55.345283,8.90377358 C55.3011321,8.8154717 55.1981132,8.74188679 55.0950943,8.74188679 L54.9479245,8.74188679 C54.8449057,8.74188679 54.7418868,8.8154717 54.6977358,8.90377358 L50.0913208,18.8083019 C50.0030189,18.9996226 50.1207547,19.1909434 50.3415094,19.1909434 Z M53.9030189,15.6588679 L55.0067925,13.230566 L55.0215094,13.230566 L56.14,15.6588679 L53.9030189,15.6588679 Z" id="Shape"></path>
        </g>
    </g>
</svg>