<svg id="7b68bc5c-abef-4226-843b-6ec8b00ef78d" data-name="Livello 1" xmlns="http://www.w3.org/2000/svg" viewBox="0 0 200 60"><title>SVG_Tavola disegno 1</title><rect x="80.36" y="25.84" width="3.19" height="15.49" style="fill:#1d1d1b"/><path d="M94,35.84h3.73v2.28a7.61,7.61,0,0,1-3,.57,4.82,4.82,0,0,1-5.13-5.1c0-2.9,1.82-5.06,4.63-5.06a4.28,4.28,0,0,1,3.46,1.41l2.18-2.14c-1.29-1.46-3.11-2.14-5.64-2.14a7.62,7.62,0,0,0-7.91,7.93c0,4.58,3.35,7.95,8.41,7.95a10.07,10.07,0,0,0,6-1.8V33H94Z" style="fill:#1d1d1b"/><polygon points="67.62 41.33 70.81 41.33 70.81 36.62 76.98 36.62 76.98 33.77 70.81 33.77 70.81 28.64 77.6 28.64 77.6 25.84 67.62 25.84 67.62 41.33" style="fill:#1d1d1b"/><path d="M51.91,7.91a11,11,0,0,0-7.84-3.1c-3.83,0-8,1.7-11.7,4.59a6.08,6.08,0,0,0-.66-.47A6.39,6.39,0,0,0,27.9,8C23.56,8,16.79,10.16,14.83,11a4,4,0,0,0-2.12,2.4,3.6,3.6,0,0,0,0,2.36,12.47,12.47,0,0,1-1,1.06,3.91,3.91,0,0,0-1,4.26,3.17,3.17,0,0,0,2.92,2,3.06,3.06,0,0,0,.73-.1,17.13,17.13,0,0,0,9.2-5.31,8.9,8.9,0,0,1,2.66-2.11l.07.1q-.55.8-1.08,1.62c-5.2,8.4-5.79,18.06-1.61,26.51C27,50.64,32.55,54.52,38.9,54.53h0A13.74,13.74,0,0,0,50,49.11c2.59-3.47,3.22-8,1.79-12.67a13.82,13.82,0,0,1-.51-6.07,25.29,25.29,0,0,1,2.38-7l.81-1.8C56.19,17.43,57.22,13.06,51.91,7.91ZM47.13,47a10.25,10.25,0,0,1-8.23,4h0c-4.95,0-9.37-3.17-12.1-8.7C23.16,35,23.69,26.55,28.24,19.21c.1-.14.19-.28.28-.42A29.37,29.37,0,0,0,44.61,29.9c1,.26,2,.48,3,.66a17.45,17.45,0,0,0,.71,6.91C49.46,41.07,49,44.46,47.13,47ZM50.4,21.93a35.53,35.53,0,0,0-2.27,6c-1-.17-1.93-.38-2.84-.62A27.2,27.2,0,0,1,30.17,16.5c-.72-1-1.25-1.81-1.63-2.33-.3-.3.08-.95.18-1.4.06-.25,0-.43-.27-.43h-.11c-7.3.85-5.71,5.9-14.58,8.09h-.09c-.47,0-.8-.89,0-1.66a8.54,8.54,0,0,0,1.75-2.18,1.71,1.71,0,0,0-.1-1.7,1.14,1.14,0,0,1,.62-1.41c1.92-.86,8.28-2.86,12-2.86a3.69,3.69,0,0,1,2.32.55l0,0a2.47,2.47,0,0,1,.93.86,16.36,16.36,0,0,0,1.71,1.51,37.59,37.59,0,0,0,17.34,7.33,2.21,2.21,0,0,1,.55.17C50.67,21.36,50.54,21.64,50.4,21.93Zm1.41-3.35a5.12,5.12,0,0,0-1.15-.33,36.28,36.28,0,0,1-12.8-4.54A31.61,31.61,0,0,1,35,11.82a15.93,15.93,0,0,1,9-3.49,7.47,7.47,0,0,1,5.39,2.11C52.6,13.48,52.77,15.78,51.81,18.58Z" style="fill:#1d1d1b"/><path d="M141.72,32.7a2.9,2.9,0,0,0,2.19-2.85c0-2.19-1.62-4-4.51-4h-6V41.33h6.26c3.24,0,5.2-2,5.2-4.78A3.71,3.71,0,0,0,141.72,32.7Zm-5.12-4.06h2.61a1.39,1.39,0,0,1,1.55,1.46c0,.89-.68,1.46-1.71,1.46H136.6Zm2.93,9.89H136.6V34.27h2.75a2.06,2.06,0,0,1,2.3,2.12A2,2,0,0,1,139.53,38.53Z" style="fill:#1d1d1b"/><polygon points="113.49 33.77 106.86 33.77 106.86 25.84 103.66 25.84 103.66 41.33 106.86 41.33 106.86 36.62 113.49 36.62 113.49 41.33 116.68 41.33 116.68 25.84 113.49 25.84 113.49 33.77" style="fill:#1d1d1b"/><path d="M166.51,25.7,159.7,41.33h3.07l.73-1.75h6.3l.73,1.75h3.34L166.79,25.7Zm2.14,11.21h-4.08l1.12-2.69a26.6,26.6,0,0,0,.91-2.77s.48,1.68.94,2.77Z" style="fill:#1d1d1b"/><path d="M185.72,25.84v6.49c0,1.07.2,2.83.2,2.83A20,20,0,0,0,184.1,33l-7.81-7.34H176V41.33h3V34.84a28.27,28.27,0,0,0-.22-2.83,23.49,23.49,0,0,0,1.84,2.12l7.82,7.34h.31V25.84Z" style="fill:#1d1d1b"/><polygon points="150.49 36.3 156.72 36.3 156.72 33.56 150.49 33.56 150.49 28.64 157.56 28.64 157.56 25.84 147.3 25.84 147.3 41.33 157.87 41.33 157.87 38.53 150.49 38.53 150.49 36.3" style="fill:#1d1d1b"/><rect x="146.47" y="19.23" width="10.61" height="2.43" style="fill:#1d1d1b"/><polygon points="119.03 28.64 123.44 28.64 123.44 41.33 126.64 41.33 126.64 28.64 131.06 28.64 131.06 25.84 119.03 25.84 119.03 28.64" style="fill:#1d1d1b"/></svg>