<?xml version="1.0" encoding="utf-8"?>
<!-- Generator: Adobe Illustrator 22.0.1, SVG Export Plug-In . SVG Version: 6.00 Build 0)  -->
<svg version="1.1" id="Livello_1" xmlns="http://www.w3.org/2000/svg" xmlns:xlink="http://www.w3.org/1999/xlink" x="0px" y="0px"
	 viewBox="0 0 841.9 595.3" style="enable-background:new 0 0 841.9 595.3;" xml:space="preserve">
<style type="text/css">
	.st0{fill:#4F9E59;}
	.st1{fill:#3B6C9D;}
</style>
<g>
	<path class="st0" d="M563.7,291.1c6.8,0,10.6,3.4,11.4,10.3h-23C553.6,294.6,557.5,291.1,563.7,291.1 M586,303.5
		c0-6.3-2.1-11.4-6.2-15.5c-4.1-4-9.6-6.1-16.3-6.1c-6.4,0-11.8,2.3-16.4,6.9c-4.6,4.6-6.8,10.5-6.8,17.9c0,7.5,2.1,13.3,6.2,17.5
		c4.2,4.2,9.8,6.3,16.9,6.3c7.6,0,13.4-1.6,17.2-4.7l-4.2-8.3c-2.6,2.6-6.4,3.9-11.4,3.9c-4,0-7.2-1-9.5-3.1c-2.4-2.1-3.6-5-3.8-8.7
		h33.4C585.7,306.9,586,304.9,586,303.5 M509.9,329.8c1.9,0.5,4.4,0.8,7.5,0.8c5.5,0,9.9-1.2,13.1-3.7c3.2-2.5,4.8-5.9,4.8-10.2
		c0-3.3-0.9-6-2.7-8.3c-1.8-2.3-4.8-4.3-8.9-5.9c-4.1-1.6-6.8-2.9-8-3.9c-1.3-1-1.9-2-1.9-3.2c0-3,1.9-4.5,5.7-4.5
		c4.3,0,7.6,1,10,3.1l3.1-8.5c-4.3-2.2-8.8-3.3-13.7-3.3c-4.8,0-8.8,1.1-11.8,3.4c-3.1,2.2-4.6,5.4-4.6,9.5c0,6,4,10.7,12.1,14.1
		c3.7,1.5,6.2,2.9,7.5,4c1.3,1.1,1.9,2.6,1.9,4.4c0,3-2.1,4.5-6.4,4.5c-4.1,0-7.8-1.3-11-3.9l-3.9,8.7
		C505.6,328.2,508,329.2,509.9,329.8 M494.2,329.6v-46.8h-17v9h6v37.8H494.2z M484.3,266.6c-1.2,1.2-1.9,2.7-1.9,4.5
		c0,1.8,0.6,3.2,1.9,4.5c1.2,1.2,2.7,1.9,4.5,1.9c1.7,0,3.2-0.6,4.5-1.9c1.2-1.2,1.8-2.7,1.8-4.5c0-1.7-0.6-3.2-1.8-4.5
		c-1.2-1.2-2.7-1.9-4.5-1.9C487.1,264.8,485.6,265.4,484.3,266.6 M473.1,282.9h-10.7L452.2,311l-11.8-28.1h-3.9L425,310.8l-9.4-27.9
		h-11.5l17.6,47.6h4l12.8-28.7l12.8,28.7h4L473.1,282.9z"/>
	<path class="st1" d="M357.6,315.3c0,4.9,1.3,8.6,3.8,11.2c2.5,2.6,6.1,4,10.7,4c4.7,0,8.3-0.4,10.8-1.3v-10
		c-2.3,1.4-4.7,2.1-7.3,2.1s-4.5-0.7-5.5-2.1s-1.6-3.7-1.6-7.1v-20.5h12.8v-8.8h-12.8v-13.5l-10.9,4v9.5h-5.4v8.8h5.4V315.3z
		 M326.2,291.1c6.8,0,10.6,3.4,11.4,10.3h-23C316.1,294.6,320,291.1,326.2,291.1 M348.6,303.5c0-6.3-2-11.4-6.2-15.5
		c-4.1-4-9.5-6.1-16.3-6.1c-6.4,0-11.8,2.3-16.4,6.9c-4.6,4.6-6.8,10.5-6.8,17.9c0,7.5,2.1,13.3,6.2,17.5c4.2,4.2,9.8,6.3,16.9,6.3
		c7.6,0,13.4-1.6,17.2-4.7l-4.2-8.3c-2.6,2.6-6.4,3.9-11.4,3.9c-4,0-7.2-1-9.5-3.1c-2.4-2.1-3.6-5-3.8-8.7h33.4
		C348.3,306.9,348.6,304.9,348.6,303.5 M296.9,329.6V301c0-6-1.6-10.6-4.8-14c-3.2-3.3-7.6-5-13.2-5c-5.8,0-10.2,1.8-13.1,5.2
		l-2-4.4h-7.9v46.8h10.9v-33.8c1-1.3,2.4-2.5,4.3-3.4c1.8-0.9,3.5-1.4,5.1-1.4c3.5,0,6,0.9,7.5,2.7s2.3,4.8,2.3,8.7v27H296.9z"/>
</g>
</svg>
