<?xml version="1.0" encoding="UTF-8"?>
<svg width="1198px" height="240px" viewBox="0 0 1198 240" version="1.1" xmlns="http://www.w3.org/2000/svg" xmlns:xlink="http://www.w3.org/1999/xlink">
    <!-- Generator: Sketch 48.2 (47327) - http://www.bohemiancoding.com/sketch -->
    <title>netwise</title>
    <desc>Created with Sketch.</desc>
    <defs></defs>
    <g id="Calendar" stroke="none" stroke-width="1" fill="none" fill-rule="evenodd">
        <g id="netwise" transform="translate(-3.000000, -2.000000)" fill-rule="nonzero">
            <path d="M1120.08671,98.3296073 C1144.75982,98.3296073 1158.54773,110.666163 1161.45045,135.702115 L1077.99728,135.702115 C1083.43988,111.029003 1097.59063,98.3296073 1120.08671,98.3296073 Z M1201,143.321752 C1201,120.46284 1193.38036,101.958006 1178.50393,87.081571 C1163.62749,72.5679758 1143.6713,64.9483384 1119.36103,64.9483384 C1096.13927,64.9483384 1076.54592,73.2936556 1059.85529,89.98429 C1043.16465,106.674924 1035.18218,128.082477 1035.18218,154.932628 C1035.18218,182.145619 1042.80181,203.190332 1057.67825,218.429607 C1072.91752,233.668882 1093.23656,241.28852 1118.99819,241.28852 C1146.57402,241.28852 1167.61873,235.483082 1181.40665,224.235045 L1166.16737,194.119335 C1156.73353,203.553172 1142.94562,208.270091 1124.80363,208.270091 C1110.29003,208.270091 1098.67915,204.641692 1090.33384,197.022054 C1081.62568,189.402417 1077.2716,178.88006 1076.54592,165.454985 L1197.73444,165.454985 C1199.91148,155.658308 1201,148.401511 1201,143.321752 Z M924.878852,238.74864 C931.77281,240.56284 940.843807,241.65136 952.091843,241.65136 C972.048036,241.65136 988.012991,237.297281 999.623867,228.226284 C1011.23474,219.155287 1017.04018,206.818731 1017.04018,191.216616 C1017.04018,179.2429 1013.77462,169.446224 1007.2435,161.100906 C1000.71239,152.755589 989.82719,145.498792 974.950755,139.693353 C960.07432,133.887915 950.277644,129.170997 945.923565,125.542598 C941.206647,121.914199 939.029607,118.285801 939.029607,113.931722 C939.029607,103.046526 945.923565,97.6039275 959.71148,97.6039275 C975.313595,97.6039275 987.287311,101.232326 995.995468,108.851964 L1007.2435,78.010574 C991.64139,70.0280967 975.313595,66.036858 957.534441,66.036858 C940.118127,66.036858 925.604532,70.0280967 914.719335,78.3734139 C903.471299,86.3558912 898.028701,97.9667674 898.028701,112.843202 C898.028701,134.613595 912.542296,151.667069 941.932326,164.003625 C955.357402,169.446224 964.428399,174.525982 969.145317,178.517221 C973.862236,182.508459 976.039275,187.951057 976.039275,194.482175 C976.039275,205.367372 968.419637,210.80997 952.817523,210.80997 C937.941088,210.80997 924.516012,206.093051 912.905136,196.659215 L898.754381,228.226284 C909.276737,232.943202 917.984894,236.571601 924.878852,238.74864 Z M867.912991,238.022961 L867.912991,68.2138973 L806.230211,68.2138973 L806.230211,100.869486 L828.000604,100.869486 L828.000604,238.022961 L867.912991,238.022961 Z M831.991843,9.43383686 C827.637764,13.7879154 825.097885,19.2305136 825.097885,25.7616314 C825.097885,32.2927492 827.274924,37.3725076 831.991843,42.089426 C836.345921,46.4435045 841.78852,48.9833837 848.319637,48.9833837 C854.487915,48.9833837 859.930514,46.8063444 864.647432,42.089426 C869.001511,37.7353474 871.17855,32.2927492 871.17855,25.7616314 C871.17855,19.5933535 869.001511,14.1507553 864.647432,9.43383686 C860.293353,5.07975831 854.850755,2.53987915 848.319637,2.53987915 C842.15136,2.90271903 836.708761,5.07975831 831.991843,9.43383686 Z M791.353776,68.5767372 L752.529909,68.5767372 L715.520242,170.534743 L672.705136,68.5767372 L658.554381,68.5767372 L616.827795,169.809063 L582.720846,68.5767372 L540.99426,68.5767372 L604.854079,241.28852 L619.367674,241.28852 L665.811178,137.153474 L712.254683,241.28852 L726.768278,241.28852 L791.353776,68.5767372 Z" id="Shape" fill="#4F9E59"></path>
            <path d="M372.273716,186.136858 C372.273716,203.916012 376.990634,217.341088 386.061631,226.774924 C395.132628,236.208761 408.194864,241.28852 424.885498,241.28852 C441.938973,241.28852 455.001208,239.83716 464.072205,236.571601 L464.072205,200.287613 C455.726888,205.367372 447.018731,207.907251 437.584894,207.907251 C428.151057,207.907251 421.2571,205.367372 417.628701,200.287613 C414.000302,195.207855 411.823263,186.862538 411.823263,174.525982 L411.823263,100.143807 L458.266767,100.143807 L458.266767,68.2138973 L411.823263,68.2138973 L411.823263,19.2305136 L372.273716,33.7441088 L372.273716,68.2138973 L352.680363,68.2138973 L352.680363,100.143807 L372.273716,100.143807 L372.273716,186.136858 Z M258.341994,98.3296073 C283.015106,98.3296073 296.803021,110.666163 299.70574,135.702115 L216.252568,135.702115 C221.695166,111.029003 235.845921,98.3296073 258.341994,98.3296073 Z M339.618127,143.321752 C339.618127,120.46284 332.361329,101.958006 317.122054,87.081571 C302.245619,72.5679758 282.652266,64.9483384 257.979154,64.9483384 C234.757402,64.9483384 215.164048,73.2936556 198.473414,89.98429 C181.782779,106.674924 173.800302,128.082477 173.800302,154.932628 C173.800302,182.145619 181.41994,203.190332 196.296375,218.429607 C211.53565,233.668882 231.854683,241.28852 257.616314,241.28852 C285.192145,241.28852 306.236858,235.483082 320.024773,224.235045 L304.785498,194.119335 C295.351662,203.553172 281.563746,208.270091 263.421752,208.270091 C248.908157,208.270091 237.297281,204.641692 228.951964,197.022054 C220.243807,189.402417 215.889728,178.88006 215.164048,165.454985 L336.352568,165.454985 C338.529607,155.658308 339.618127,148.401511 339.618127,143.321752 Z M152.029909,238.022961 L152.029909,134.250755 C152.029909,112.480363 146.224471,95.7897281 134.613595,83.4531722 C123.002719,71.4794562 107.037764,65.3111782 86.7187311,65.3111782 C65.6740181,65.3111782 49.7090634,71.8422961 39.1867069,84.178852 L31.9299094,68.2138973 L3.26555891,68.2138973 L3.26555891,238.022961 L42.8151057,238.022961 L42.8151057,115.383082 C46.4435045,110.666163 51.5232628,106.312085 58.4172205,103.046526 C64.9483384,99.7809668 71.1166163,97.9667674 76.9220544,97.9667674 C89.6214502,97.9667674 98.6924471,101.232326 104.135045,107.763444 C109.577644,114.294562 112.480363,125.179758 112.480363,139.330514 L112.480363,237.297281 L152.029909,237.297281 L152.029909,238.022961 Z" id="Shape" fill="#3B6C9D"></path>
        </g>
    </g>
</svg>