<?xml version="1.0" encoding="utf-8"?>
<!-- Generator: Adobe Illustrator 21.1.0, SVG Export Plug-In . SVG Version: 6.00 Build 0)  -->
<svg version="1.1" id="Livello_1" xmlns="http://www.w3.org/2000/svg" xmlns:xlink="http://www.w3.org/1999/xlink" x="0px" y="0px"
	 viewBox="0 0 2048 1536" style="enable-background:new 0 0 2048 1536;" xml:space="preserve">
<style type="text/css">
	.st0{fill:#333333;}
	.st1{fill:url(#SVGID_1_);}
	.st2{fill:url(#SVGID_2_);}
</style>
<g>
	<path class="st0" d="M553.4,793.8v43.7h-21.6c-15.1,0-29.3-2.9-42.8-8.6c-13.4-5.7-25.2-13.7-35.4-23.8
		c-10.2-10.2-18.1-21.9-23.8-35.4c-5.7-13.4-8.6-27.7-8.6-42.8V528.4h43.7v132.7h88.5v43.7h-88.5V727c0,9.2,1.7,17.9,5.2,26
		c3.4,8.2,8.2,15.3,14.2,21.4c6.1,6.1,13.2,10.8,21.4,14.2c8.2,3.4,16.9,5.2,26,5.2H553.4z"/>
	<path class="st0" d="M679.7,616.9c15.4,0,29.7,2.9,43,8.6c13.3,5.7,25,13.6,35.1,23.6c10.1,10,18.1,21.6,23.8,34.9
		c5.7,13.3,8.6,27.6,8.6,43v110.6h-43.7V727c0-9.2-1.7-17.8-5.2-25.8c-3.4-8-8.2-15.1-14.2-21.1c-6.1-6.1-13.2-10.8-21.4-14.2
		c-8.2-3.4-16.9-5.2-26-5.2c-9.2,0-17.8,1.7-25.8,5.2c-8,3.4-15.1,8.2-21.1,14.2c-6.1,6.1-10.8,13.1-14.2,21.1
		c-3.4,8-5.2,16.6-5.2,25.8v110.6h-43.7V528.4h43.7v111.1c9.2-7.2,19.4-12.8,30.7-16.7C655.4,618.9,667.2,616.9,679.7,616.9z"/>
	<path class="st0" d="M935.7,616.9v43.7h-22.1c-9.2,0-17.8,1.7-25.8,5.2c-8,3.4-15.1,8.2-21.1,14.2c-6.1,6.1-10.8,13.1-14.2,21.1
		c-3.4,8-5.2,16.6-5.2,25.8v110.6H803V727c0-15.4,2.9-29.7,8.6-43c5.7-13.3,13.7-24.9,23.8-34.9c10.1-10,21.9-17.9,35.4-23.6
		c13.4-5.7,27.7-8.6,42.8-8.6H935.7z"/>
	<path class="st0" d="M1121.5,759.9l31,31l-15.2,15.2c-10.5,10.5-22.4,18.5-35.9,24.1c-13.4,5.6-27.5,8.4-42.3,8.4
		c-14.7,0-28.8-2.8-42.3-8.4c-13.4-5.6-25.4-13.6-35.9-24.1c-10.8-10.8-18.8-23-24.1-36.6c-5.2-13.6-7.9-27.4-7.9-41.5
		c0-14.1,2.6-27.8,7.9-41.3c5.2-13.4,13.3-25.6,24.1-36.4c10.8-10.8,23-18.9,36.6-24.3c13.6-5.4,27.4-8.1,41.5-8.1
		c14.1,0,27.9,2.7,41.5,8.1c13.6,5.4,25.8,13.5,36.6,24.3l15.2,15.2l-122.4,122.4c12.4,6.2,25.6,8.3,39.6,6.1
		c13.9-2.1,26.1-8.4,36.6-18.9L1121.5,759.9z M1011.9,680.8c-13.1,13.1-19.7,28.8-19.7,47.2c0,10.2,2.3,19.8,6.9,29
		c3.9-3.9,9.9-9.9,17.9-17.9c8-8,16.5-16.5,25.6-25.6c9-9,17.7-17.6,26-25.8c8.4-8.2,14.8-14.6,19.4-19.2
		c-12.5-6.2-25.6-8.4-39.6-6.4C1034.6,664.1,1022.4,670.3,1011.9,680.8z"/>
	<path class="st0" d="M1621.2,528.4V727c0,15.1-2.9,29.3-8.6,42.8c-5.7,13.4-13.6,25.2-23.6,35.4c-10,10.2-21.7,18.1-35.1,23.8
		c-13.4,5.7-27.7,8.6-42.8,8.6c-15.1,0-29.3-2.9-42.8-8.6c-13.4-5.7-25.2-13.7-35.4-23.8c-10.2-10.2-18.1-21.9-23.8-35.4
		c-5.7-13.4-8.6-27.7-8.6-42.8c0-15.4,2.9-29.7,8.6-43c5.7-13.3,13.7-24.9,23.8-34.9c10.2-10,21.9-17.9,35.4-23.6
		c13.4-5.7,27.7-8.6,42.8-8.6h66.3v-88.5H1621.2z M1511.1,793.8c9.2,0,17.8-1.7,25.8-5.2c8-3.4,15.1-8.2,21.1-14.2
		c6.1-6.1,10.8-13.2,14.2-21.4c3.4-8.2,5.2-16.9,5.2-26v-66.3h-66.3c-9.2,0-17.9,1.7-26,5.2c-8.2,3.4-15.3,8.2-21.4,14.2
		c-6.1,6.1-10.8,13.1-14.2,21.1c-3.4,8-5.2,16.6-5.2,25.8c0,9.2,1.7,17.9,5.2,26c3.4,8.2,8.2,15.3,14.2,21.4
		c6.1,6.1,13.2,10.8,21.4,14.2C1493.3,792.1,1502,793.8,1511.1,793.8z"/>
</g>
<linearGradient id="SVGID_1_" gradientUnits="userSpaceOnUse" x1="1280.4747" y1="730.3685" x2="1384.4758" y2="831.1195">
	<stop  offset="0" style="stop-color:#007E98"/>
	<stop  offset="1" style="stop-color:#00AA9E"/>
</linearGradient>
<path class="st1" d="M1277.2,616.9c15.4,0,29.7,2.9,43,8.6c13.3,5.7,24.9,13.6,34.9,23.6c10,10,17.9,21.6,23.6,34.9
	c5.7,13.3,8.6,27.6,8.6,43v110.6h-110.1c-15.1,0-29.3-2.9-42.8-8.6c-13.4-5.7-25.2-13.7-35.4-23.8c-10.2-10.2-18.1-21.9-23.8-35.4
	c-5.7-13.4-8.6-27.7-8.6-42.8c0-15.4,2.9-29.7,8.6-43c5.7-13.3,13.7-24.9,23.8-34.9c10.1-10,21.9-17.9,35.4-23.6
	C1247.9,619.8,1262.2,616.9,1277.2,616.9z M1343.6,793.8V727c0-9.2-1.7-17.8-5.2-25.8c-3.4-8-8.2-15.1-14.3-21.1
	c-6.1-6.1-13.1-10.8-21.1-14.2c-8-3.4-16.6-5.2-25.8-5.2c-9.2,0-17.9,1.7-26,5.2c-8.2,3.4-15.3,8.2-21.4,14.2
	c-6.1,6.1-10.8,13.1-14.2,21.1c-3.4,8-5.2,16.6-5.2,25.8c0,9.2,1.7,17.9,5.2,26c3.4,8.2,8.2,15.3,14.2,21.4
	c6.1,6.1,13.2,10.8,21.4,14.2c8.2,3.4,16.9,5.2,26,5.2H1343.6z"/>
<linearGradient id="SVGID_2_" gradientUnits="userSpaceOnUse" x1="1067.7317" y1="949.9741" x2="1171.7328" y2="1050.7252">
	<stop  offset="0" style="stop-color:#007E98"/>
	<stop  offset="1" style="stop-color:#00AA9E"/>
</linearGradient>
<path class="st2" d="M607,889c-2.8-2-6.3-3-10.6-3c-1.7,0-3.5,0.2-5.2,0.5c-1.7,0.3-3.2,0.9-4.5,1.7c-1.3,0.8-2.4,1.9-3.1,3.3
	s-1.2,3.1-1.2,5.1c0,1.9,0.6,3.5,1.7,4.7s2.7,2.2,4.5,2.9c1.9,0.8,4,1.4,6.4,1.9c2.4,0.5,4.8,1,7.3,1.6c2.5,0.6,4.9,1.3,7.3,2.1
	c2.4,0.8,4.5,1.9,6.4,3.2c1.9,1.3,3.4,3,4.5,5.1c1.1,2,1.7,4.6,1.7,7.7c0,3.3-0.7,6.2-2.2,8.5c-1.5,2.4-3.4,4.3-5.7,5.8
	c-2.3,1.5-4.9,2.6-7.8,3.2c-2.9,0.7-5.8,1-8.6,1c-3.5,0-6.8-0.4-9.9-1.3c-3.1-0.9-5.9-2.2-8.2-4c-2.4-1.8-4.2-4-5.6-6.8
	c-1.4-2.8-2.1-6-2.1-9.8h7.9c0,2.6,0.5,4.9,1.5,6.8c1,1.9,2.4,3.4,4,4.7c1.7,1.2,3.6,2.1,5.8,2.7c2.2,0.6,4.5,0.9,6.8,0.9
	c1.9,0,3.7-0.2,5.6-0.5c1.9-0.3,3.6-0.9,5.1-1.8c1.5-0.8,2.7-2,3.7-3.4c0.9-1.5,1.4-3.3,1.4-5.6c0-2.2-0.6-3.9-1.7-5.2
	c-1.1-1.3-2.7-2.4-4.5-3.3s-4-1.5-6.4-2.1c-2.4-0.5-4.8-1.1-7.3-1.6c-2.5-0.6-4.9-1.2-7.3-1.9c-2.4-0.7-4.5-1.7-6.4-2.9
	c-1.9-1.2-3.4-2.7-4.5-4.6c-1.1-1.9-1.7-4.3-1.7-7.1c0-3.1,0.6-5.9,1.9-8.2c1.3-2.3,3-4.2,5.1-5.7c2.1-1.5,4.5-2.6,7.3-3.3
	c2.7-0.7,5.5-1.1,8.3-1.1c3.2,0,6.2,0.4,8.9,1.1c2.7,0.8,5.1,2,7.2,3.6c2.1,1.6,3.7,3.7,4.9,6.2c1.2,2.5,1.8,5.4,2,8.9h-7.9
	C611.3,894.3,609.7,891,607,889z M684,899.4c1.3-3.9,3.1-7.4,5.6-10.4c2.5-3,5.6-5.4,9.3-7.3c3.7-1.8,8.1-2.7,13-2.7
	c4.9,0,9.3,0.9,13,2.7c3.7,1.8,6.8,4.2,9.3,7.3c2.5,3,4.4,6.5,5.6,10.4c1.3,3.9,1.9,8,1.9,12.3c0,4.3-0.6,8.3-1.9,12.3
	c-1.3,3.9-3.1,7.4-5.6,10.4s-5.6,5.4-9.3,7.2c-3.7,1.8-8.1,2.7-13,2.7c-5,0-9.3-0.9-13-2.7c-3.7-1.8-6.8-4.2-9.3-7.2
	s-4.4-6.5-5.6-10.4c-1.3-3.9-1.9-8-1.9-12.3C682.1,907.4,682.8,903.3,684,899.4z M691.7,921c0.8,3.1,2.1,5.8,3.8,8.3
	c1.7,2.4,4,4.4,6.7,5.9c2.7,1.5,6,2.2,9.8,2.2c3.8,0,7-0.7,9.8-2.2c2.7-1.5,5-3.4,6.7-5.9c1.7-2.4,3-5.2,3.8-8.3
	c0.8-3.1,1.2-6.2,1.2-9.3c0-3.1-0.4-6.2-1.2-9.3c-0.8-3.1-2.1-5.8-3.8-8.3c-1.7-2.4-4-4.4-6.7-5.9c-2.7-1.5-6-2.2-9.8-2.2
	c-3.8,0-7,0.7-9.8,2.2c-2.7,1.5-5,3.4-6.7,5.9c-1.7,2.4-3,5.2-3.8,8.3c-0.8,3.1-1.2,6.2-1.2,9.3C690.4,914.8,690.8,917.9,691.7,921z
	 M813.6,880.5v55.4h33v7h-41.3v-62.4H813.6z M950.6,938.3c-4.3,4-10.3,6-18.2,6c-8,0-14.3-1.9-18.8-5.7s-6.8-9.9-6.8-18.2v-39.8h8.3
	v39.8c0,5.6,1.5,9.8,4.5,12.7c3,2.9,7.3,4.3,12.8,4.3c5.3,0,9.3-1.4,12.1-4.3c2.8-2.9,4.2-7.1,4.2-12.7v-39.8h8.3v39.8
	C957,928.3,954.8,934.3,950.6,938.3z M1016.9,887.5v-7h49.9v7H1046v55.4h-8.3v-55.4H1016.9z M1135.6,880.5v62.4h-8.3v-62.4H1135.6z
	 M1201.3,899.4c1.3-3.9,3.1-7.4,5.6-10.4c2.5-3,5.6-5.4,9.3-7.3c3.7-1.8,8.1-2.7,13-2.7c4.9,0,9.3,0.9,13,2.7
	c3.7,1.8,6.8,4.2,9.3,7.3c2.5,3,4.4,6.5,5.6,10.4c1.3,3.9,1.9,8,1.9,12.3c0,4.3-0.6,8.3-1.9,12.3c-1.3,3.9-3.1,7.4-5.6,10.4
	s-5.6,5.4-9.3,7.2c-3.7,1.8-8.1,2.7-13,2.7c-5,0-9.3-0.9-13-2.7c-3.7-1.8-6.8-4.2-9.3-7.2s-4.4-6.5-5.6-10.4
	c-1.3-3.9-1.9-8-1.9-12.3C1199.4,907.4,1200,903.3,1201.3,899.4z M1208.9,921c0.8,3.1,2.1,5.8,3.8,8.3c1.7,2.4,4,4.4,6.7,5.9
	c2.7,1.5,6,2.2,9.8,2.2s7-0.7,9.8-2.2c2.7-1.5,5-3.4,6.7-5.9c1.7-2.4,3-5.2,3.8-8.3c0.8-3.1,1.2-6.2,1.2-9.3c0-3.1-0.4-6.2-1.2-9.3
	c-0.8-3.1-2.1-5.8-3.8-8.3c-1.7-2.4-4-4.4-6.7-5.9c-2.7-1.5-6-2.2-9.8-2.2s-7,0.7-9.8,2.2c-2.7,1.5-5,3.4-6.7,5.9
	c-1.7,2.4-3,5.2-3.8,8.3c-0.8,3.1-1.2,6.2-1.2,9.3C1207.7,914.8,1208.1,917.9,1208.9,921z M1331.3,880.5l32.8,50.6h0.2v-50.6h7.9
	v62.4h-9.1l-32.6-50.1h-0.2v50.1h-7.9v-62.4H1331.3z M1470.2,889c-2.8-2-6.3-3-10.6-3c-1.7,0-3.5,0.2-5.2,0.5
	c-1.7,0.3-3.2,0.9-4.5,1.7c-1.3,0.8-2.4,1.9-3.1,3.3s-1.2,3.1-1.2,5.1c0,1.9,0.6,3.5,1.7,4.7s2.7,2.2,4.5,2.9c1.9,0.8,4,1.4,6.4,1.9
	c2.4,0.5,4.8,1,7.3,1.6c2.5,0.6,4.9,1.3,7.3,2.1c2.4,0.8,4.5,1.9,6.4,3.2c1.9,1.3,3.4,3,4.5,5.1s1.7,4.6,1.7,7.7
	c0,3.3-0.7,6.2-2.2,8.5c-1.5,2.4-3.4,4.3-5.7,5.8s-4.9,2.6-7.8,3.2c-2.9,0.7-5.8,1-8.6,1c-3.5,0-6.8-0.4-9.9-1.3
	c-3.1-0.9-5.9-2.2-8.2-4c-2.4-1.8-4.2-4-5.6-6.8c-1.4-2.8-2.1-6-2.1-9.8h7.9c0,2.6,0.5,4.9,1.5,6.8c1,1.9,2.4,3.4,4,4.7
	c1.7,1.2,3.6,2.1,5.8,2.7c2.2,0.6,4.5,0.9,6.8,0.9c1.9,0,3.7-0.2,5.6-0.5c1.9-0.3,3.6-0.9,5.1-1.8c1.5-0.8,2.7-2,3.7-3.4
	c0.9-1.5,1.4-3.3,1.4-5.6c0-2.2-0.6-3.9-1.7-5.2c-1.1-1.3-2.7-2.4-4.5-3.3c-1.9-0.8-4-1.5-6.4-2.1c-2.4-0.5-4.8-1.1-7.3-1.6
	c-2.5-0.6-4.9-1.2-7.3-1.9c-2.4-0.7-4.5-1.7-6.4-2.9c-1.9-1.2-3.4-2.7-4.5-4.6c-1.1-1.9-1.7-4.3-1.7-7.1c0-3.1,0.6-5.9,1.9-8.2
	c1.3-2.3,3-4.2,5.1-5.7c2.1-1.5,4.5-2.6,7.3-3.3c2.7-0.7,5.5-1.1,8.3-1.1c3.2,0,6.2,0.4,8.9,1.1c2.7,0.8,5.1,2,7.2,3.6
	c2.1,1.6,3.7,3.7,4.9,6.2c1.2,2.5,1.8,5.4,2,8.9h-7.9C1474.5,894.3,1472.9,891,1470.2,889z"/>
</svg>
