<?xml version="1.0" encoding="UTF-8"?>
<svg width="560px" height="353px" viewBox="0 0 560 353" version="1.1" xmlns="http://www.w3.org/2000/svg" xmlns:xlink="http://www.w3.org/1999/xlink">
    <!-- Generator: Sketch 47.1 (45422) - http://www.bohemiancoding.com/sketch -->
    <title>XP Logo Vertical 2 colors Copy</title>
    <desc>Created with Sketch.</desc>
    <defs></defs>
    <g id="Page-1" stroke="none" stroke-width="1" fill="none" fill-rule="evenodd">
        <g id="Vertical---2-colors" transform="translate(-680.000000, -512.000000)">
            <g id="XP-Logo-Vertical-2-colors-Copy" transform="translate(680.000000, 512.000000)">
                <path d="M143.4862,7.583 C143.1702,7.193 143.1082,6.657 143.3302,6.209 C143.5542,5.761 144.0242,5.475 144.5362,5.475 L232.5722,5.475 C235.8942,5.475 239.0362,6.959 241.0942,9.497 C263.8962,37.625 399.0202,204.347 415.7942,225.045 C416.1122,225.435 416.1702,225.969 415.9482,226.419 C415.7242,226.867 415.2582,227.151 414.7462,227.151 L326.3782,227.151 C323.2622,227.151 320.3182,225.763 318.3882,223.379 C296.2042,196.009 160.3082,28.341 143.4862,7.583 Z M232.034,150.8192 L232.034,188.1472 C232.034,212.3912 211.812,232.0792 186.904,232.0792 C161.998,232.0792 141.778,212.3912 141.778,188.1472 C141.778,163.8992 161.998,144.2112 186.904,144.2112 L225.248,144.2112 C228.996,144.2112 232.034,147.1692 232.034,150.8192 Z M327.2444,81.8082 L327.2444,44.4802 C327.2444,20.2322 347.4664,0.5462 372.3744,0.5462 C397.2804,0.5462 417.5024,20.2322 417.5024,44.4802 C417.5024,68.7282 397.2804,88.4162 372.3744,88.4162 L334.0304,88.4162 C330.2844,88.4162 327.2444,85.4562 327.2444,81.8082 Z" id="Fill-1" fill="#E95045"></path>
                <polygon id="Fill-7" fill="#878786" points="46.0078 351.9892 32.4578 326.8112 19.3118 351.9892 -0.0002 351.9892 23.6618 310.3292 2.5278 271.0952 23.1558 271.0952 34.8858 293.4432 46.6138 271.0952 65.9278 271.0952 43.6818 310.2272 65.6238 351.9892"></polygon>
                <path d="M93.6344,312.5536 L103.7464,312.5536 C107.1164,312.5536 109.6444,311.9796 111.3304,310.8336 C113.0144,309.6876 113.8584,307.3276 113.8584,303.7556 L113.8584,295.5656 C113.8584,291.9256 113.0144,289.4636 111.3304,288.1836 C109.6444,286.9036 107.1164,286.2636 103.7464,286.2636 L93.6344,286.2636 L93.6344,312.5536 Z M73.4104,351.9896 L73.4104,271.0956 L104.9584,271.0956 C113.9244,271.0956 121.0204,272.9496 126.2444,276.6556 C131.4704,280.3656 134.0804,286.2276 134.0804,294.2496 L134.0804,305.4756 C134.0804,313.1596 131.5024,318.7556 126.3464,322.2616 C121.1884,325.7656 114.0944,327.5176 105.0604,327.5176 L93.6344,327.5176 L93.6344,351.9896 L73.4104,351.9896 Z" id="Fill-10" fill="#878786"></path>
                <polygon id="Fill-12" fill="#878786" points="144.193 351.9892 144.193 271.0952 204.863 271.0952 204.863 286.2632 164.417 286.2632 164.417 301.4312 199.807 301.4312 199.807 316.5992 164.417 316.5992 164.417 336.8212 204.863 336.8212 204.863 351.9892"></polygon>
                <path d="M235.1994,312.5536 L245.3114,312.5536 C248.6814,312.5536 251.2094,311.9796 252.8954,310.8336 C254.5794,309.6876 255.4234,307.3276 255.4234,303.7556 L255.4234,295.5656 C255.4234,291.9256 254.5794,289.4636 252.8954,288.1836 C251.2094,286.9036 248.6814,286.2636 245.3114,286.2636 L235.1994,286.2636 L235.1994,312.5536 Z M214.9754,351.9896 L214.9754,271.0956 L246.5234,271.0956 C255.4894,271.0956 262.5854,272.9496 267.8094,276.6556 C273.0354,280.3656 275.6454,286.2276 275.6454,294.2496 L275.6454,305.4756 C275.6454,313.1596 273.0674,318.7556 267.9114,322.2616 C262.7534,325.7656 255.6594,327.5176 246.6254,327.5176 L235.1994,327.5176 L235.1994,351.9896 L214.9754,351.9896 Z" id="Fill-14" fill="#878786"></path>
                <path d="M305.982,312.5536 L316.094,312.5536 C319.464,312.5536 321.992,311.9796 323.678,310.8336 C325.362,309.6876 326.206,307.3276 326.206,303.7556 L326.206,295.5656 C326.206,291.9256 325.362,289.4636 323.678,288.1836 C321.992,286.9036 319.464,286.2636 316.094,286.2636 L305.982,286.2636 L305.982,312.5536 Z M285.758,351.9896 L285.758,271.0956 L317.306,271.0956 C326.272,271.0956 333.368,272.9496 338.592,276.6556 C343.818,280.3656 346.428,286.2276 346.428,294.2496 L346.428,305.4756 C346.428,313.1596 343.85,318.7556 338.694,322.2616 C333.536,325.7656 326.442,327.5176 317.408,327.5176 L305.982,327.5176 L305.982,351.9896 L285.758,351.9896 Z" id="Fill-16" fill="#878786"></path>
                <polygon id="Fill-18" fill="#878786" points="356.5404 351.9892 356.5404 271.0952 417.2104 271.0952 417.2104 286.2632 376.7644 286.2632 376.7644 301.4312 412.1544 301.4312 412.1544 316.5992 376.7644 316.5992 376.7644 336.8212 417.2104 336.8212 417.2104 351.9892"></polygon>
                <path d="M447.547,351.9892 L427.323,351.9892 L427.323,271.0952 L460.793,271.0952 C469.827,271.0952 476.449,273.0172 480.663,276.8592 C484.875,280.7012 486.983,286.2292 486.983,293.4432 L486.983,300.7212 C486.983,306.2512 485.819,310.8012 483.495,314.3732 C481.169,317.9452 477.715,320.4752 473.129,321.9572 L489.915,351.9892 L468.781,351.9892 L453.109,323.6772 L447.547,323.6772 L447.547,351.9892 L447.547,351.9892 Z M447.547,308.5092 L457.659,308.5092 C461.435,308.5092 464.063,307.9192 465.547,306.7392 C467.029,305.5592 467.771,303.3512 467.771,300.1152 L467.771,294.6552 C467.771,291.5552 467.029,289.3812 465.547,288.1332 C464.063,286.8852 461.435,286.2632 457.659,286.2632 L447.547,286.2632 L447.547,308.5092 Z" id="Fill-20" fill="#878786"></path>
                <path d="M527.5312,353 C520.9912,353 515.2632,352.21 510.3412,350.624 C505.4212,349.04 501.0052,347.102 497.0952,344.81 L501.6452,329.744 C505.6892,332.104 509.7512,334.042 513.8292,335.558 C517.9072,337.074 522.5752,337.834 527.8332,337.834 C531.8112,337.834 534.6752,337.09 536.4292,335.608 C538.1812,334.124 539.0592,332.138 539.0592,329.642 C539.0592,326.542 537.9452,324.418 535.7212,323.272 C533.4972,322.126 529.6532,320.946 524.1932,319.732 C514.9592,317.644 508.4692,314.778 504.7292,311.138 C500.9872,307.498 499.1152,302.24 499.1152,295.364 C499.1152,288.286 501.5452,282.302 506.3972,277.416 C511.2512,272.528 518.6992,270.084 528.7432,270.084 C533.5972,270.084 538.5012,270.944 543.4572,272.662 C548.4112,274.382 552.3392,276.084 555.2372,277.77 L551.6972,292.128 C547.6532,290.104 543.8272,288.488 540.2212,287.274 C536.6132,286.062 532.8232,285.454 528.8452,285.454 C525.5412,285.454 523.1152,286.094 521.5652,287.376 C520.0152,288.656 519.2392,290.544 519.2392,293.038 C519.2392,295.532 520.1812,297.52 522.0712,299.004 C523.9572,300.486 528.0032,301.87 534.2052,303.15 C543.4412,305.106 549.9292,307.968 553.6712,311.744 C557.4112,315.52 559.2812,321.082 559.2812,328.428 C559.2812,336.25 556.4852,342.298 550.8892,346.58 C545.2932,350.86 537.5092,353 527.5312,353" id="Fill-22" fill="#878786"></path>
            </g>
        </g>
    </g>
</svg>