<svg id="Livello_1" data-name="Livello 1" xmlns="http://www.w3.org/2000/svg" viewBox="0 0 974.61 526.4"><defs><style>.cls-1,.cls-9{fill:#fff;}.cls-2{fill:#02aad3;}.cls-3{fill:#05abd4;}.cls-4{font-size:89.33px;}.cls-4,.cls-6{fill:#00aad4;}.cls-4,.cls-6,.cls-9{font-family:AvenirNext-DemiBold, Avenir Next;font-weight:700;}.cls-5{font-size:62.99px;font-family:AvenirNext-Bold, Avenir Next;}.cls-6{font-size:75.75px;letter-spacing:-0.09em;}.cls-7{letter-spacing:-0.02em;}.cls-8{letter-spacing:0em;}.cls-9{font-size:125px;}</style></defs><title>iad-ge-large</title><ellipse class="cls-1" cx="202.62" cy="202.54" rx="202.62" ry="201.25"/><path class="cls-2" d="M73,461.62c16.37-25.74,36.37-46.24,61.09-61.72,107.87-67.55,243.14-27,296.22,88.59C481.14,599.1,416.77,735,298.78,766.14,185.75,796,75,730.71,46.78,617.53c-3.08-12.33-3.08-12.35,9.29-12.35,56.08,0,112.16-.16,168.24.18,8,0,10.57-1.86,10.31-10.14-.63-20.62.1-41.29-.33-61.92-.69-32.77-19.23-59-47.46-67.91a76.94,76.94,0,0,0-23.39-3.17q-43.35,0-86.7-.05C76.07,462.16,75.39,462,73,461.62ZM296.1,565.22c-15.39-.09-27.52,7.2-32.4,19.2-4,9.79-6,20.37-9.58,30.33-2.36,6.5-.8,8.93,5.86,10.67,24.53,6.42,48.88,13.5,73.33,20.23,16.74,4.61,17.06,4.53,17.43,21.56.13,6.07,2.31,7.39,7.9,7.43,6.74,0,6.11-4.2,5.72-8.22-.92-9.64.15-17.36,10.83-22,7.79-3.4,11.09-11.88,13.61-19.84,2.28-7.18,3.62-14.68,6.22-21.73,2.67-7.26,1.41-10.59-6.73-12.56-19.31-4.66-38.35-10.41-57.52-15.67C318.23,571.15,305.67,567.8,296.1,565.22Z" transform="translate(-41.33 -367.16)"/><path class="cls-2" d="M125.62,580.25c-25.11,0-50.22-.23-75.32.15-6.76.1-9-2.1-8.93-8.68a215.61,215.61,0,0,1,14.95-78.47c2.32-5.91,5.82-6.34,11-6.32,32,.15,64,0,96,.09,26.45,0,44.35,16.29,46,42.65.89,14.74,0,29.57.48,44.35.2,6.33-3.21,6.29-7.72,6.27C176.52,580.2,151.07,580.25,125.62,580.25Zm38.9-25.06c11.24,0,20.45-9.32,20.11-20.33a20.14,20.14,0,0,0-20.09-19.34c-11.13,0-20.38,9.37-20.05,20.34A20,20,0,0,0,164.52,555.19Z" transform="translate(-41.33 -367.16)"/><path class="cls-3" d="M296.47,577.47l21.6,6c19.51,5.42,39,11,58.57,16.16,4.39,1.17,6.74,2.29,4.72,7.48s-2.79,10.64-4.71,15.77c-5.21,13.92-13.82,18.43-28.3,14.54-24.86-6.68-49.59-13.87-74.49-20.42-6.36-1.67-7.58-4.35-5.25-10.17s3.28-12,5.82-17.55C278,581.59,284.07,576.87,296.47,577.47Zm-4.17,31.64c6.08-.16,9.54-3.47,9.7-8.86.19-6-3.8-9.8-9.71-9.62-5.33.16-8.9,3.52-8.77,9.39S287,608.63,292.3,609.12Z" transform="translate(-41.33 -367.16)"/><text class="cls-4" transform="translate(455.57 154.43) scale(0.97 1)">m<tspan class="cls-5" x="79.51" y="0">i</tspan><tspan x="98.15" y="0">n</tspan><tspan class="cls-5" x="150.14" y="0">i</tspan><tspan x="0" y="90">Italian</tspan></text><text class="cls-6" transform="translate(560.94 491.63) scale(0.97 1)">T<tspan class="cls-7" x="36.21" y="0">r</tspan><tspan class="cls-8" x="62.41" y="0">ento 2018</tspan></text><text class="cls-9" transform="translate(424.02 379.47) scale(0.97 1)">Agile Day</text></svg>