<svg id="Livello_1" data-name="Livello 1" xmlns="http://www.w3.org/2000/svg" viewBox="0 0 998.13 528.45"><defs><style>.cls-1,.cls-10{fill:#fff;}.cls-2{fill:#02aad3;}.cls-3{fill:#05abd4;}.cls-10,.cls-4,.cls-5,.cls-6,.cls-7,.cls-8,.cls-9{isolation:isolate;}.cls-5{font-size:89.33px;}.cls-5,.cls-6,.cls-7,.cls-8,.cls-9{fill:#00aad4;}.cls-10,.cls-5,.cls-6,.cls-7,.cls-8,.cls-9{font-family:AvenirNext-Bold, Avenir Next;font-weight:700;}.cls-6{font-size:62.99px;}.cls-7,.cls-8,.cls-9{font-size:75.75px;}.cls-7{letter-spacing:-0.11em;}.cls-8{letter-spacing:-0.02em;}.cls-10{font-size:125px;}</style></defs><title>iad-ge-large</title><ellipse class="cls-1" cx="202.62" cy="202.55" rx="202.62" ry="201.25"/><path class="cls-2" d="M31.67,94.46C48,68.72,68,48.22,92.76,32.74,200.63-34.81,335.9,5.74,389,121.33,439.81,231.94,375.44,367.84,257.45,399c-113,29.86-223.78-35.43-252-148.61C2.37,238,2.37,238,14.74,238c56.08,0,112.16-.16,168.24.18,8,0,10.57-1.86,10.31-10.14-.63-20.62.1-41.29-.33-61.92-.69-32.77-19.23-59-47.46-67.91a76.94,76.94,0,0,0-23.39-3.17q-43.35,0-86.7,0A36.19,36.19,0,0,1,31.67,94.46Zm223.1,103.6c-15.39-.09-27.52,7.2-32.4,19.2-4,9.79-6,20.37-9.58,30.33-2.36,6.5-.8,8.93,5.86,10.67,24.53,6.42,48.88,13.5,73.33,20.23C308.72,283.1,309,283,309.41,300c.13,6.07,2.31,7.39,7.9,7.43,6.74,0,6.11-4.2,5.72-8.22-.92-9.64.15-17.36,10.83-22,7.79-3.4,11.09-11.88,13.61-19.84,2.28-7.18,3.62-14.68,6.22-21.73,2.67-7.26,1.41-10.59-6.73-12.56-19.31-4.66-38.35-10.41-57.52-15.67C276.9,204,264.34,200.64,254.77,198.06Z" transform="translate(0 0.01)"/><path class="cls-2" d="M84.29,213.09c-25.11,0-50.22-.23-75.32.15-6.76.1-9-2.1-8.93-8.68a215.61,215.61,0,0,1,15-78.47c2.32-5.91,5.82-6.34,11-6.32,32,.15,64,0,96,.09,26.45,0,44.35,16.29,46,42.65.89,14.74,0,29.57.48,44.35.2,6.33-3.21,6.29-7.72,6.27C135.19,213,109.74,213.09,84.29,213.09ZM123.19,188c11.24,0,20.45-9.32,20.11-20.33a20.14,20.14,0,0,0-20.09-19.34c-11.13,0-20.38,9.37-20.05,20.34A20,20,0,0,0,123.19,188Z" transform="translate(0 0.01)"/><path class="cls-3" d="M255.14,210.31l21.6,6c19.51,5.42,39,11,58.57,16.16,4.39,1.17,6.74,2.29,4.72,7.48s-2.79,10.64-4.71,15.77c-5.21,13.92-13.82,18.43-28.3,14.54-24.86-6.68-49.59-13.87-74.49-20.42-6.36-1.67-7.58-4.35-5.25-10.17s3.28-12,5.82-17.55C236.67,214.43,242.74,209.71,255.14,210.31ZM251,241.95c6.08-.16,9.54-3.47,9.7-8.86.19-6-3.8-9.8-9.71-9.62-5.33.16-8.9,3.52-8.77,9.39s3.48,8.61,8.78,9.1Z" transform="translate(0 0.01)"/><g class="cls-4"><text class="cls-5" transform="translate(455.57 154.44) scale(0.97 1)">m</text><text class="cls-6" transform="translate(532.69 154.44) scale(0.97 1)">i</text><text class="cls-5" transform="translate(550.78 154.44) scale(0.97 1)">n</text><text class="cls-6" transform="translate(601.21 154.44) scale(0.97 1)">i</text><text class="cls-5" transform="translate(455.57 244.44) scale(0.97 1)">Italian</text></g><g class="cls-4"><text class="cls-7" transform="translate(560.94 491.64) scale(0.97 1)">T</text><text class="cls-8" transform="translate(596.06 491.64) scale(0.97 1)">r</text><text class="cls-9" transform="translate(621.48 491.64) scale(0.97 1)">ento 2018</text></g><text class="cls-10" transform="translate(424.02 379.48) scale(0.97 1)">Agile Day</text></svg>