<?xml version="1.0" encoding="UTF-8"?>
<svg width="35px" height="41px" viewBox="0 0 35 41" version="1.1" xmlns="http://www.w3.org/2000/svg" xmlns:xlink="http://www.w3.org/1999/xlink">
    <!-- Generator: Sketch 48.2 (47327) - http://www.bohemiancoding.com/sketch -->
    <title>Shape Copy 3</title>
    <desc>Created with Sketch.</desc>
    <defs></defs>
    <g id="Desktop-HD-Copy-2" stroke="none" stroke-width="1" fill="none" fill-rule="evenodd" transform="translate(-79.000000, -81.000000)">
        <path d="M96.5,82 C105.6025,82 113,88.994 113,97.6 C113,102.735 109.80175,108.4875 106.214375,113.0193 C104.42275,115.2852 102.526625,117.2443 100.840875,118.6522 C99.998,119.3581 99.207375,119.9262 98.492375,120.3292 C97.777375,120.7348 97.153125,121 96.498625,121 C95.844125,121 95.219875,120.7335 94.504875,120.3305 C93.789875,119.9249 93.000625,119.3581 92.15775,118.6535 C90.472,117.243 88.575875,115.2865 86.78425,113.018 C83.19825,108.4862 80,102.735 80,97.6 C80,88.994 87.3975,82 96.5,82 Z M96.5,92 C92.9172,92 90,94.9172 90,98.5 C90,102.0828 92.9172,105 96.5,105 C100.0828,105 103,102.0828 103,98.5 C103,94.9172 100.0828,92 96.5,92 Z" id="Shape-Copy-3" stroke="#FFFFFF" fill-rule="nonzero"></path>
    </g>
</svg>