<?xml version="1.0" encoding="UTF-8"?>
<svg width="22px" height="10px" viewBox="0 0 22 10" version="1.1" xmlns="http://www.w3.org/2000/svg" xmlns:xlink="http://www.w3.org/1999/xlink">
    <!-- Generator: Sketch 48.2 (47327) - http://www.bohemiancoding.com/sketch -->
    <title>Arrow</title>
    <desc>Created with Sketch.</desc>
    <defs></defs>
    <g id="Artboard" stroke="none" stroke-width="1" fill="none" fill-rule="evenodd" transform="translate(-93.000000, -72.000000)">
        <g id="Arrow" transform="translate(104.500000, 77.000000) rotate(-270.000000) translate(-104.500000, -77.000000) translate(100.000000, 67.000000)" stroke="#FFFFFF">
            <path d="M2.32701563,-0.954489581 L6.93894347,2.83726714 C7.02426571,2.90741593 7.03656622,3.03345011 6.96641743,3.11877235 C6.95817282,3.1288003 6.94897142,3.13800169 6.93894347,3.1462463 L2.32701563,6.93800302 C2.24169339,7.00815181 2.11565921,6.99585131 2.04551042,6.91052907 C2.01608603,6.87474007 2,6.82984536 2,6.78351344 L2,-0.8 C2,-0.91045695 2.08954305,-1 2.2,-1 C2.24633192,-1 2.29122663,-0.983913971 2.32701563,-0.954489581 Z" id="Triangle-Copy" fill="#FFFFFF" transform="translate(4.505967, 2.991760) rotate(-90.000000) translate(-4.505967, -2.991760) "></path>
            <path d="M4.5,3.5 L4.5,19.5312195" id="Line-7" stroke-width="2" stroke-linecap="square"></path>
        </g>
    </g>
</svg>